<svg width="89" height="31" viewBox="0 0 89 31" fill="none" xmlns="http://www.w3.org/2000/svg">
<g filter="url(#filter0_d_332_1723)">
<path fill-rule="evenodd" clip-rule="evenodd" d="M18.1915 0C19.76 2.62675e-05 21.1345 0.325619 22.3144 0.975586C23.5013 1.62557 24.4234 2.54568 25.0804 3.73608C25.7446 4.91973 26.0765 6.31893 26.0766 7.93359C26.0766 9.02148 25.8926 10.065 25.5252 11.064C25.1578 12.056 24.5572 12.942 23.7235 13.7219C22.996 14.4025 22.0556 14.9597 20.9031 15.3955L20.8948 15.3677C20.8936 15.3694 20.8822 15.3834 20.8637 15.4102C20.7079 15.4685 20.5485 15.5255 20.385 15.5793C19.5014 15.8674 18.4841 16.0632 17.3331 16.1675V19.5857C17.1684 19.7291 17.0058 19.8614 16.846 19.9775C16.3139 20.3642 15.6714 20.7042 15.0005 21C14.2519 20.6833 13.5277 20.3118 12.9386 19.8838C12.8152 19.7941 12.69 19.6943 12.5635 19.5879V16.1052C11.576 15.9848 10.6892 15.7929 9.90337 15.5281C8.46204 15.0423 7.31032 14.3823 6.44833 13.5476C5.58642 12.7061 4.96118 11.7552 4.57256 10.6948C4.19102 9.63431 4 8.5252 4 7.3689C4.00003 6.22647 4.15232 5.17991 4.45608 4.229C4.76694 3.27804 5.16945 2.44664 5.66399 1.73511C6.16565 1.01669 6.69566 0.43789 7.25385 0L10.8042 2.30933C10.4297 2.72668 10.1083 3.19218 9.83983 3.70532C9.57841 4.21163 9.37682 4.77265 9.2355 5.38843C9.09421 5.99727 9.02022 6.65745 9.01314 7.3689C9.01314 8.36784 9.17949 9.24761 9.51158 10.0071C9.85076 10.7595 10.469 11.3515 11.3662 11.7825C11.7093 11.9434 12.1085 12.073 12.5635 12.1729V4.61865C12.5635 3.16818 13.0724 2.03587 14.0898 1.22168C15.1073 0.407494 16.4746 0 18.1915 0ZM18.6151 3.81812C18.2054 3.81816 17.8874 3.96902 17.6613 4.27002C17.4424 4.57102 17.3331 4.97799 17.3331 5.49097V12.2644C17.8661 12.1759 18.3325 12.0511 18.7316 11.885C19.5936 11.5292 20.2089 11.0194 20.5763 10.3557C20.9437 9.68523 21.127 8.87771 21.127 7.93359C21.1269 7.11275 21.0212 6.39449 20.8093 5.77881C20.5973 5.16311 20.304 4.68389 19.9296 4.3418C19.5552 3.99285 19.1168 3.81812 18.6151 3.81812Z" fill="#F2F2F2"/>
<path d="M35.7549 21V0H44.76C46.3922 0 47.8008 0.307617 48.9859 0.922852C50.178 1.53125 51.097 2.38232 51.7428 3.47607C52.3885 4.56299 52.7114 5.82764 52.7114 7.27002C52.7114 8.71924 52.3814 9.9873 51.7215 11.0742C51.0686 12.1543 50.1355 12.9917 48.922 13.5864C47.7085 14.1812 46.268 14.4785 44.6004 14.4785H39.044V10.4795H43.6211C44.4159 10.4795 45.0794 10.3462 45.6116 10.0796C46.1509 9.81299 46.559 9.44043 46.8357 8.96191C47.1125 8.47656 47.2508 7.9126 47.2508 7.27002C47.2508 6.6206 47.1125 6.06006 46.8357 5.58838C46.559 5.10986 46.1509 4.74072 45.6116 4.48096C45.0723 4.22119 44.4088 4.09131 43.6211 4.09131H41.0239V21H35.7549Z" fill="#F2F2F2"/>
<path d="M55.3086 21V0H60.5776V8.42871H69.1676V0H74.4259V21H69.1676V12.561H60.5776V21H55.3086Z" fill="#F2F2F2"/>
<path d="M83 0V21H77.731V0H83Z" fill="#F2F2F2"/>
</g>
<defs>
<filter id="filter0_d_332_1723" x="0" y="0" width="89" height="31" filterUnits="userSpaceOnUse" color-interpolation-filters="sRGB">
<feFlood flood-opacity="0" result="BackgroundImageFix"/>
<feColorMatrix in="SourceAlpha" type="matrix" values="0 0 0 0 0 0 0 0 0 0 0 0 0 0 0 0 0 0 127 0" result="hardAlpha"/>
<feOffset dx="1" dy="5"/>
<feGaussianBlur stdDeviation="2.5"/>
<feComposite in2="hardAlpha" operator="out"/>
<feColorMatrix type="matrix" values="0 0 0 0 0 0 0 0 0 0 0 0 0 0 0 0 0 0 0.38 0"/>
<feBlend mode="normal" in2="BackgroundImageFix" result="effect1_dropShadow_332_1723"/>
<feBlend mode="normal" in="SourceGraphic" in2="effect1_dropShadow_332_1723" result="shape"/>
</filter>
</defs>
</svg>
