<svg width="29" height="28" viewBox="0 0 29 28" fill="none" xmlns="http://www.w3.org/2000/svg">
<path d="M18.3232 0C20.3484 3.50233e-05 22.1231 0.434158 23.6465 1.30078C25.1789 2.16743 26.3694 3.39424 27.2178 4.98145C28.0753 6.55964 28.5039 8.42523 28.5039 10.5781C28.5039 12.0286 28.2664 13.42 27.792 14.752C27.3176 16.0747 26.5423 17.2559 25.4658 18.2959C24.5265 19.2034 23.3123 19.9463 21.8242 20.5273L21.8135 20.4902C21.812 20.4925 21.7972 20.5112 21.7734 20.5469C21.5722 20.6246 21.3664 20.7007 21.1553 20.7725C20.0145 21.1566 18.701 21.4176 17.2148 21.5566V26.1143C17.0022 26.3055 16.7923 26.4819 16.5859 26.6367C15.8989 27.1523 15.0694 27.6056 14.2031 28C13.2367 27.5778 12.3016 27.0824 11.541 26.5117C11.3817 26.3922 11.22 26.2591 11.0566 26.1172V21.4736C9.78167 21.313 8.63671 21.0572 7.62207 20.7041C5.76111 20.0564 4.27408 19.1764 3.16113 18.0635C2.0483 16.9415 1.24102 15.6736 0.739258 14.2598C0.24663 12.8457 0 11.3669 0 9.8252C3.92097e-05 8.30196 0.196669 6.90655 0.588867 5.63867C0.990232 4.37072 1.50992 3.26218 2.14844 2.31348C2.79615 1.35559 3.48048 0.583854 4.20117 0L8.78516 3.0791C8.30166 3.63558 7.8867 4.25624 7.54004 4.94043C7.2025 5.61551 6.94222 6.36353 6.75977 7.18457C6.57734 7.99636 6.48181 8.87661 6.47266 9.8252C6.47266 11.1571 6.68744 12.3302 7.11621 13.3428C7.55414 14.3461 8.35232 15.1353 9.51074 15.71C9.95375 15.9245 10.4692 16.0973 11.0566 16.2305V6.1582C11.0567 4.22424 11.7137 2.71449 13.0273 1.62891C14.341 0.543325 16.1064 0 18.3232 0ZM18.8701 5.09082C18.3411 5.09088 17.9306 5.29202 17.6387 5.69336C17.356 6.0947 17.2149 6.63731 17.2148 7.32129V16.3525C17.903 16.2345 18.5053 16.0681 19.0205 15.8467C20.1335 15.3723 20.928 14.6925 21.4023 13.8076C21.8766 12.9136 22.1133 11.8369 22.1133 10.5781C22.1133 9.48367 21.9767 8.52598 21.7031 7.70508C21.4295 6.88415 21.0508 6.24518 20.5674 5.78906C20.0839 5.3238 19.5178 5.09082 18.8701 5.09082Z" fill="#F2F2F2"/>
</svg>
